<svg height="511pt" viewBox="-35 1 511 511.99975" width="511pt" xmlns="http://www.w3.org/2000/svg"><path d="m221.117188 404.347656-75.160157-75.160156c-68.078125-68.078125-68.078125-178.453125 0-246.53125l75.160157-75.15625 75.15625 75.15625c68.078124 68.078125 68.078124 178.453125 0 246.53125zm0 0" fill="#72e4a0"/><path d="m296.273438 82.65625-75.15625-75.15625-16.742188 16.738281 58.417969 58.417969c68.078125 68.078125 68.078125 178.453125 0 246.53125l-58.417969 58.417969 16.742188 16.742187 75.15625-75.160156c68.078124-68.078125 68.078124-178.453125 0-246.53125zm0 0" fill="#6ad394"/><path d="m294.785156 147.476562c3.515625-2.1875 4.59375-6.8125 2.40625-10.332031-2.1875-3.515625-6.8125-4.59375-10.328125-2.40625l-58.246093 36.226563v-63.742188c0-4.144531-3.359376-7.5-7.5-7.5-4.144532 0-7.5 3.355469-7.5 7.5v63.742188l-58.25-36.226563c-3.515626-2.1875-8.140626-1.109375-10.328126 2.410157-2.1875 3.515624-1.109374 8.140624 2.40625 10.328124l66.171876 41.152344v53.875l-58.25-36.226562c-3.515626-2.191406-8.140626-1.113282-10.328126 2.40625-2.1875 3.515625-1.109374 8.140625 2.40625 10.332031l66.167969 41.152344v53.871093l-58.246093-36.226562c-3.515626-2.1875-8.140626-1.109375-10.328126 2.410156-2.1875 3.515625-1.109374 8.140625 2.40625 10.328125l66.167969 41.152344v54.535156l-62.355469-62.355469c-65.042968-65.042968-65.042968-170.878906-.007812-235.914062l.148438-.148438c2.933593-2.921874 2.945312-7.671874.019531-10.605468s-7.671875-2.941406-10.605469-.015625l-.15625.15625c-70.894531 70.890625-70.894531 186.242187 0 257.136719l72.960938 72.960937v97.046875c0 4.140625 3.355468 7.5 7.5 7.5 4.140624 0 7.5-3.359375 7.5-7.5v-97.046875l61.988281-61.988281c2.929687-2.929688 2.929687-7.679688 0-10.605469-2.929688-2.929687-7.679688-2.929687-10.605469 0l-51.382812 51.378906v-54.535156l66.167968-41.152344c3.515625-2.1875 4.59375-6.8125 2.40625-10.328125-2.1875-3.519531-6.8125-4.597656-10.328125-2.410156l-58.246093 36.226562v-53.871093l66.167968-41.152344c3.515625-2.1875 4.59375-6.8125 2.40625-10.332031-2.1875-3.515625-6.8125-4.59375-10.328125-2.40625l-58.246093 36.226562v-53.875zm0 0"/><path d="m12.609375 104.476562 46.417969 33.53125c3.375 2.441407 8.058594 1.652344 10.472656-1.6875 2.425781-3.355468 1.667969-8.042968-1.6875-10.46875l-46.421875-33.535156c-3.355469-2.425781-8.042969-1.671875-10.472656 1.6875-2.421875 3.355469-1.667969 8.046875 1.691406 10.472656zm0 0"/><path d="m59.027344 273.835938-46.417969 33.535156c-3.359375 2.425781-4.113281 7.113281-1.691406 10.472656 2.417969 3.347656 7.105469 4.117188 10.472656 1.6875l46.421875-33.535156c3.355469-2.425782 4.113281-7.113282 1.6875-10.472656-2.425781-3.359376-7.117188-4.113282-10.472656-1.6875zm0 0"/><path d="m63.417969 200.878906h-55.417969c-4.140625 0-7.5 3.355469-7.5 7.5 0 4.140625 3.359375 7.5 7.5 7.5h55.417969c4.144531 0 7.5-3.359375 7.5-7.5 0-4.144531-3.355469-7.5-7.5-7.5zm0 0"/><path d="m383.203125 138.007812 46.421875-33.53125c3.355469-2.429687 4.113281-7.117187 1.6875-10.472656-2.425781-3.359375-7.117188-4.113281-10.472656-1.6875l-46.417969 33.535156c-3.359375 2.425782-4.113281 7.113282-1.6875 10.46875 2.417969 3.347657 7.101563 4.121094 10.46875 1.6875zm0 0"/><path d="m429.625 307.371094-46.421875-33.535156c-3.355469-2.425782-8.042969-1.671876-10.46875 1.6875-2.425781 3.359374-1.671875 8.046874 1.6875 10.472656 48.519531 34.414062 46.425781 34.957031 50.804687 34.957031 7.25-.003906 10.289063-9.324219 4.398438-13.582031zm0 0"/><path d="m434.230469 200.878906h-55.417969c-4.140625 0-7.5 3.355469-7.5 7.5 0 4.140625 3.359375 7.5 7.5 7.5h55.417969c4.144531 0 7.5-3.359375 7.5-7.5 0-4.144531-3.355469-7.5-7.5-7.5zm0 0"/><path d="m301.578125 77.355469-75.160156-75.160157c-2.929688-2.925781-7.675781-2.925781-10.605469 0l-49.761719 49.765626c-2.929687 2.929687-2.929687 7.675781 0 10.605468 2.925781 2.929688 7.675781 2.929688 10.605469 0l44.460938-44.460937 69.855468 69.855469c29.246094 29.246093 46.519532 68.082031 48.632813 109.355468 2.101562 40.96875-10.824219 81.066406-36.390625 112.902344-2.59375 3.226562-2.078125 7.949219 1.152344 10.542969 1.382812 1.113281 3.042968 1.652343 4.691406 1.652343 2.191406 0 4.371094-.957031 5.851562-2.804687 57.964844-72.179687 52.203125-176.71875-13.332031-242.253906zm0 0"/></svg>