<svg height="512" viewBox="0 0 64 64" width="512" xmlns="http://www.w3.org/2000/svg"><path d="m24.6 61h14.8a2 2 0 0 0 1.952-1.566l3.648-16.434h-26l3.652 16.434a2 2 0 0 0 1.948 1.566z" fill="#8c6239"/><rect fill="#754c24" height="4" rx="2" width="32" x="16" y="39"/><path d="m32 39v-32" fill="none" stroke="#097e46" stroke-linejoin="round" stroke-width="2"/><path d="m18 61h28" fill="none" stroke="#29485a" stroke-linecap="round" stroke-linejoin="round" stroke-width="2"/><path d="m32 57a1 1 0 0 0 -1-1h-9.111l.444 2h8.667a1 1 0 0 0 1-1z" fill="#603813"/><path d="m27 51a1 1 0 0 0 0 2h15.778l.444-2z" fill="#603813"/><path d="m32 12a4 4 0 0 1 4-4h3a4 4 0 0 1 -4 4z" fill="#81c56a"/><path d="m32 23h4a5 5 0 0 0 5-5h-4a5 5 0 0 0 -5 5z" fill="#24a257"/><path d="m32 34h5a7 7 0 0 0 7-7h-5a7 7 0 0 0 -7 7z" fill="#1b9251"/><path d="m32 7a4 4 0 0 0 -4-4h-3a4 4 0 0 0 4 4z" fill="#81c56a"/><path d="m32 17h-4a5 5 0 0 1 -5-5h4a5 5 0 0 1 5 5z" fill="#24a257"/><path d="m32 29h-5a7 7 0 0 1 -7-7h5a7 7 0 0 1 7 7z" fill="#1b9251"/><path d="m31 38h-13a3 3 0 0 0 0 6h.2l2.843 12.8a1.007 1.007 0 0 0 -.043.2.978.978 0 0 0 .22.6l.456 2.051a3.093 3.093 0 0 0 .109.35h-3.785a1 1 0 0 0 0 2h28a1 1 0 0 0 0-2h-3.785a3.093 3.093 0 0 0 .109-.35l3.476-15.651h.2a3 3 0 0 0 0-6h-13v-3h4a8.009 8.009 0 0 0 8-8 1 1 0 0 0 -1-1h-5a7.976 7.976 0 0 0 -6 2.726v-4.726h3a6.006 6.006 0 0 0 6-6 1 1 0 0 0 -1-1h-4a5.969 5.969 0 0 0 -4 1.54v-5.54h2a5.006 5.006 0 0 0 5-5 1 1 0 0 0 -1-1h-3a4.948 4.948 0 0 0 -3 1.026v-1.026a5.006 5.006 0 0 0 -5-5h-3a1 1 0 0 0 -1 1 5.006 5.006 0 0 0 5 5h2v4.54a5.969 5.969 0 0 0 -4-1.54h-4a1 1 0 0 0 -1 1 6.006 6.006 0 0 0 6 6h3v5.726a7.976 7.976 0 0 0 -6-2.726h-5a1 1 0 0 0 -1 1 8.009 8.009 0 0 0 8 8h4zm11.2 13h-15.2a1 1 0 0 0 0 2h14.754l-1.382 6.217a.994.994 0 0 1 -.972.783h-14.8a.994.994 0 0 1 -.976-.783l-.266-1.217h7.642a1 1 0 0 0 0-2h-8.087l-2.666-12h23.506zm4.8-10a1 1 0 0 1 -1 1h-28a1 1 0 0 1 0-2h28a1 1 0 0 1 1 1zm-10-22h2.874a4.008 4.008 0 0 1 -3.874 3h-2.874a4.008 4.008 0 0 1 3.874-3zm-1-10h1.829a3.006 3.006 0 0 1 -2.829 2h-1.829a3.006 3.006 0 0 1 2.829-2zm-8 7a4.008 4.008 0 0 1 -3.874-3h2.874a4.008 4.008 0 0 1 3.874 3zm-1 12a6.01 6.01 0 0 1 -5.917-5h3.917a6.01 6.01 0 0 1 5.917 5zm12 0h3.917a6.01 6.01 0 0 1 -5.917 5h-3.917a6.01 6.01 0 0 1 5.917-5zm-10-22a3.006 3.006 0 0 1 -2.829-2h1.829a3.006 3.006 0 0 1 2.829 2z"/></svg>